<?xml version="1.0" encoding="UTF-8"?>
<svg id="Layer_1" xmlns="http://www.w3.org/2000/svg" version="1.1" xmlns:xlink="http://www.w3.org/1999/xlink" viewBox="0 0 449.2 448.14">
  <!-- Generator: Adobe Illustrator 29.1.0, SVG Export Plug-In . SVG Version: 2.1.0 Build 142)  -->
  <defs>
    <style>
      .st0 {
        fill: url(#linear-gradient2);
      }

      .st1 {
        fill: #64ff56;
      }

      .st2 {
        fill: url(#linear-gradient10);
      }

      .st3 {
        fill: url(#linear-gradient21);
      }

      .st4 {
        fill: #fff;
      }

      .st5 {
        fill: url(#linear-gradient26);
      }

      .st6 {
        fill: url(#linear-gradient1);
      }

      .st7 {
        fill: url(#linear-gradient9);
      }

      .st8 {
        fill: url(#linear-gradient18);
      }

      .st9 {
        fill: url(#linear-gradient23);
      }

      .st10 {
        fill: url(#linear-gradient8);
      }

      .st11 {
        fill: url(#linear-gradient11);
      }

      .st12 {
        fill: url(#linear-gradient16);
      }

      .st13 {
        fill: url(#linear-gradient24);
      }

      .st14 {
        fill: url(#linear-gradient22);
      }

      .st15 {
        fill: #231f20;
      }

      .st16 {
        fill: url(#linear-gradient19);
      }

      .st17 {
        fill: url(#linear-gradient12);
      }

      .st18 {
        fill: url(#linear-gradient7);
      }

      .st19 {
        fill: url(#linear-gradient20);
      }

      .st20 {
        fill: url(#linear-gradient4);
      }

      .st21 {
        fill: url(#linear-gradient14);
      }

      .st22 {
        fill: url(#linear-gradient5);
      }

      .st23 {
        fill: url(#linear-gradient3);
      }

      .st24 {
        fill: url(#linear-gradient25);
      }

      .st25 {
        fill: url(#linear-gradient15);
      }

      .st26 {
        fill: url(#linear-gradient17);
      }

      .st27 {
        fill: url(#linear-gradient6);
      }

      .st28 {
        fill: url(#linear-gradient13);
      }

      .st29 {
        fill: url(#linear-gradient);
      }
    </style>
    <linearGradient id="linear-gradient" x1="76.67" y1="59.87" x2="353.13" y2="59.87" gradientUnits="userSpaceOnUse">
      <stop offset="0" stop-color="#231f20"/>
      <stop offset="1" stop-color="#5d595c"/>
    </linearGradient>
    <linearGradient id="linear-gradient1" x1="49.05" y1="222.67" x2="393.22" y2="222.67" gradientUnits="userSpaceOnUse">
      <stop offset="0" stop-color="#75fe79"/>
      <stop offset=".56" stop-color="#25b07c"/>
      <stop offset="1" stop-color="#637e57"/>
    </linearGradient>
    <linearGradient id="linear-gradient2" x1="197.62" y1="45.34" x2="246.94" y2="45.34" gradientUnits="userSpaceOnUse">
      <stop offset="0" stop-color="#522294"/>
      <stop offset=".89" stop-color="#f880fd"/>
    </linearGradient>
    <linearGradient id="linear-gradient3" x1="179.59" y1="45.76" x2="263.82" y2="45.76" gradientUnits="userSpaceOnUse">
      <stop offset=".07" stop-color="#34373d"/>
      <stop offset="1" stop-color="#d3e0d5"/>
    </linearGradient>
    <linearGradient id="linear-gradient4" x1="96.06" y1="388.02" x2="360.53" y2="388.02" gradientUnits="userSpaceOnUse">
      <stop offset="0" stop-color="#272324"/>
      <stop offset="1" stop-color="#231f20"/>
    </linearGradient>
    <linearGradient id="linear-gradient5" x1="386.65" y1="84.21" x2="386.65" y2="342.06" gradientUnits="userSpaceOnUse">
      <stop offset="0" stop-color="#5d595c"/>
      <stop offset="1" stop-color="#231f20"/>
    </linearGradient>
    <linearGradient id="linear-gradient6" x1="21.45" y1="232.36" x2="96.12" y2="232.36" xlink:href="#linear-gradient4"/>
    <linearGradient id="linear-gradient7" x1="21.67" y1="240.08" x2="71" y2="240.08" gradientUnits="userSpaceOnUse">
      <stop offset="0" stop-color="#30dfa8"/>
      <stop offset="1" stop-color="#0b3d2e"/>
    </linearGradient>
    <linearGradient id="linear-gradient8" x1="3.65" y1="240.5" x2="87.88" y2="240.5" xlink:href="#linear-gradient3"/>
    <linearGradient id="linear-gradient9" x1="379.35" y1="206.33" x2="428.68" y2="206.33" xlink:href="#linear-gradient7"/>
    <linearGradient id="linear-gradient10" x1="361.33" y1="206.75" x2="445.55" y2="206.75" xlink:href="#linear-gradient3"/>
    <linearGradient id="linear-gradient11" x1="201.18" y1="401.95" x2="250.51" y2="401.95" xlink:href="#linear-gradient2"/>
    <linearGradient id="linear-gradient12" x1="183.16" y1="402.38" x2="267.39" y2="402.38" xlink:href="#linear-gradient3"/>
    <linearGradient id="linear-gradient13" x1="201.15" y1="298.09" x2="251.08" y2="298.09" xlink:href="#linear-gradient4"/>
    <linearGradient id="linear-gradient14" x1="191.74" y1="148.89" x2="253.18" y2="148.89" xlink:href="#linear-gradient4"/>
    <linearGradient id="linear-gradient15" x1="92.56" y1="167.74" x2="125.3" y2="167.74" gradientUnits="userSpaceOnUse">
      <stop offset="0" stop-color="#4e5457"/>
      <stop offset=".74" stop-color="#fcfeff"/>
    </linearGradient>
    <linearGradient id="linear-gradient16" x1="292.22" y1="129.69" x2="324.95" y2="129.69" xlink:href="#linear-gradient15"/>
    <linearGradient id="linear-gradient17" x1="326.2" y1="272.41" x2="358.94" y2="272.41" xlink:href="#linear-gradient15"/>
    <linearGradient id="linear-gradient18" x1="125.3" y1="313.04" x2="158.04" y2="313.04" xlink:href="#linear-gradient15"/>
    <linearGradient id="linear-gradient19" x1="110.59" y1="243.95" x2="159.91" y2="243.95" xlink:href="#linear-gradient7"/>
    <linearGradient id="linear-gradient20" x1="92.56" y1="244.38" x2="176.79" y2="244.38" xlink:href="#linear-gradient1"/>
    <linearGradient id="linear-gradient21" x1="290.39" y1="197.53" x2="339.71" y2="197.53" xlink:href="#linear-gradient7"/>
    <linearGradient id="linear-gradient22" x1="272.36" y1="197.96" x2="356.59" y2="197.96" xlink:href="#linear-gradient1"/>
    <linearGradient id="linear-gradient23" x1="156.08" y1="89.58" x2="156.08" y2="371.26" xlink:href="#linear-gradient1"/>
    <linearGradient id="linear-gradient24" x1="198.11" y1="94.97" x2="198.11" y2="339.13" gradientUnits="userSpaceOnUse">
      <stop offset=".11" stop-color="#f880fd"/>
      <stop offset="1" stop-color="#522294"/>
    </linearGradient>
    <linearGradient id="linear-gradient25" x1="251.65" y1="95.61" x2="251.65" y2="339.27" xlink:href="#linear-gradient24"/>
    <linearGradient id="linear-gradient26" x1="284.29" y1="89.46" x2="284.29" y2="371.55" xlink:href="#linear-gradient1"/>
  </defs>
  <path class="st29" d="M92.83,94.37c34.27-34.27,79.84-53.15,128.3-53.15,43.78,0,85.2,15.41,118.06,43.65l13.93-12.03c-35.19-31.03-81.39-49.86-131.99-49.86-56.82,0-108.11,23.74-144.47,61.83l13.83,11.94c.77-.8,1.55-1.6,2.33-2.39Z"/>
  <path class="st6" d="M393.22,222.67c0,95.04-77.04,172.08-172.08,172.08S49.05,317.71,49.05,222.67,126.1,50.59,221.14,50.59s172.08,77.04,172.08,172.08ZM329.92,331.46c29.06-29.06,45.06-67.69,45.06-108.78s-16-79.73-45.06-108.78c-29.06-29.06-67.69-45.06-108.78-45.06s-79.73,16-108.78,45.06c-29.06,29.06-45.06,67.69-45.06,108.78s16,79.73,45.06,108.78c29.06,29.06,67.69,45.06,108.78,45.06s79.73-16,108.78-45.06Z"/>
  <path class="st4" d="M221.71,91.53c-25.23,0-45.76-20.53-45.76-45.76S196.47,0,221.71,0s45.76,20.53,45.76,45.76-20.53,45.76-45.76,45.76Z"/>
  <circle class="st0" cx="222.28" cy="45.34" r="24.66"/>
  <path class="st23" d="M221.71,87.88c-23.22,0-42.11-18.89-42.11-42.11S198.48,3.65,221.71,3.65s42.11,18.89,42.11,42.12-18.89,42.11-42.11,42.11ZM221.71,12.01c-18.64,0-33.75,15.11-33.75,33.75s15.11,33.75,33.75,33.75,33.75-15.11,33.75-33.75-15.11-33.75-33.75-33.75Z"/>
  <path class="st20" d="M346.67,353.68c-33.94,32.56-78.36,50.45-125.54,50.45-40.72,0-79.39-13.33-111.03-37.91l-14.04,12.12c34.23,27.54,77.72,44.03,125.07,44.03,54.23,0,103.41-21.63,139.39-56.72l-13.86-11.96Z"/>
  <path class="st22" d="M359.21,340.41l13.8,11.91c29.81-34.89,47.82-80.16,47.82-129.65,0-53.09-20.73-101.34-54.52-137.11l-13.82,11.93c32.34,33.89,50.1,78.17,50.1,125.18,0,43.64-15.31,84.92-43.37,117.73Z"/>
  <path class="st27" d="M82.27,366.16l13.86-11.97c-1.11-1.05-2.21-2.12-3.29-3.21-34.27-34.27-53.15-79.84-53.15-128.3,0-41.21,13.65-80.32,38.81-112.18l-13.81-11.92c-27.07,34.08-43.25,77.2-43.25,124.1,0,56.32,23.32,107.18,60.82,143.48Z"/>
  <path class="st4" d="M45.76,286.27c-25.23,0-45.76-20.53-45.76-45.76s20.53-45.76,45.76-45.76,45.76,20.53,45.76,45.76-20.53,45.76-45.76,45.76Z"/>
  <circle class="st18" cx="46.34" cy="240.08" r="24.66"/>
  <path class="st10" d="M45.76,282.62c-23.22,0-42.11-18.89-42.11-42.11s18.89-42.12,42.11-42.12,42.11,18.89,42.11,42.12-18.89,42.11-42.11,42.11ZM45.76,206.75c-18.64,0-33.75,15.11-33.75,33.75s15.11,33.75,33.75,33.75,33.75-15.11,33.75-33.75-15.11-33.75-33.75-33.75Z"/>
  <path class="st4" d="M403.44,252.52c-25.23,0-45.76-20.53-45.76-45.76s20.53-45.76,45.76-45.76,45.76,20.53,45.76,45.76-20.53,45.76-45.76,45.76Z"/>
  <circle class="st7" cx="404.01" cy="206.33" r="24.66"/>
  <path class="st2" d="M403.44,248.87c-23.22,0-42.11-18.89-42.11-42.11s18.89-42.12,42.11-42.12,42.11,18.89,42.11,42.12-18.89,42.11-42.11,42.11ZM403.44,173c-18.64,0-33.75,15.11-33.75,33.75s15.11,33.75,33.75,33.75,33.75-15.11,33.75-33.75-15.11-33.75-33.75-33.75Z"/>
  <path class="st4" d="M225.27,448.14c-25.23,0-45.76-20.53-45.76-45.76s20.53-45.76,45.76-45.76,45.76,20.53,45.76,45.76-20.53,45.76-45.76,45.76Z"/>
  <circle class="st11" cx="225.85" cy="401.95" r="24.66"/>
  <path class="st17" d="M225.27,444.49c-23.22,0-42.11-18.89-42.11-42.11s18.89-42.12,42.11-42.12,42.11,18.89,42.11,42.12-18.89,42.11-42.11,42.11ZM225.27,368.63c-18.64,0-33.75,15.11-33.75,33.75s15.11,33.75,33.75,33.75,33.75-15.11,33.75-33.75-15.11-33.75-33.75-33.75Z"/>
  <g>
    <path class="st28" d="M206.27,343.56c-.07.03-.15.07-.22.1-1.63-1.83-3.26-3.66-4.9-5.49,16.67-11.5,35.91-28.51,38.82-49.79,1.2-8.77-1.29-16.14-7.58-22.45-1.01-1.01-10.63-6.46-10.69-7.14l-.57-6.28s18.17,4.94,27.57,28.21c11.34,28.06-20.33,52.91-42.44,62.83Z"/>
    <path class="st21" d="M201.18,206.33s1.3-45.08,8.69-60.27c5.03-10.48,10.07-23.91,43.31-36.67l-7.72-17.87c-.51-1.18-21.88,12.91-23.07,13.86-25.21,20.08-30.64,51.57-30.64,82.58,0,4.36,9.44,18.37,9.44,18.37Z"/>
    <circle class="st25" cx="108.93" cy="167.74" r="16.37"/>
    <circle class="st12" cx="308.59" cy="129.69" r="16.37"/>
    <circle class="st26" cx="342.57" cy="272.41" r="16.37"/>
    <circle class="st8" cx="141.67" cy="313.04" r="16.37"/>
    <circle class="st16" cx="135.25" cy="243.95" r="24.66"/>
    <path class="st19" d="M134.68,286.49c-23.22,0-42.11-18.89-42.11-42.11s18.89-42.12,42.11-42.12,42.11,18.89,42.11,42.12-18.89,42.11-42.11,42.11ZM134.68,210.63c-18.64,0-33.75,15.11-33.75,33.75s15.11,33.75,33.75,33.75,33.75-15.11,33.75-33.75-15.11-33.75-33.75-33.75Z"/>
    <circle class="st3" cx="315.05" cy="197.53" r="24.66"/>
    <path class="st14" d="M314.48,240.08c-23.22,0-42.11-18.89-42.11-42.11s18.89-42.12,42.11-42.12,42.11,18.89,42.11,42.12-18.89,42.11-42.11,42.11ZM314.47,164.21c-18.64,0-33.75,15.11-33.75,33.75s15.11,33.75,33.75,33.75,33.75-15.11,33.75-33.75-15.11-33.75-33.75-33.75Z"/>
    <circle class="st15" cx="107.64" cy="169.09" r="7.89"/>
    <circle class="st15" cx="307.16" cy="131.99" r="7.89"/>
    <circle class="st15" cx="341.14" cy="274.71" r="7.89"/>
    <circle class="st15" cx="140.24" cy="315.33" r="7.89"/>
    <circle class="st1" cx="179.74" cy="342.04" r="6.85"/>
    <circle class="st1" cx="267.39" cy="103.54" r="6.85"/>
    <path class="st9" d="M165.22,202.26s-19.23-7.51-19.25-7.52c-3.36-1.31-6.15-16.04-6.88-18.93-7.57-30.13-.07-61.37,20.82-84.29l16.03-3.65s-53.25,51.58-10.73,114.39Z"/>
    <path class="st13" d="M191.56,88.01c-.65-.15-1.31-.18-1.97.01-1.08.32-1.89,1.17-2.64,2.01-10.94,12.23-17.97,27.85-20.12,44.11-2.41,18.24,6.36,33.37,12.67,49.98,5.4,14.21,11.41,28.17,16.91,42.34,5.26,13.55,13.13,26,17.67,39.84,4.02,12.24,4.72,28.15-3.74,39.02-10.21,13.12-28.37,12.33-43.28,11.13-1.09,2.02-.09,4.66,1.67,6.11,1.76,1.46,4.1,2,6.35,2.39,12.58,2.2,26.38.93,36.71-6.59,10.25-7.46,15.7-20.09,17.35-32.66,2.59-19.69-3.11-39.2-10.49-57.27-3.57-8.75-7.54-17.35-11.66-25.86-12.21-25.21-30.22-56.51-18.09-84.06,3.81-8.66,11.58-14.93,18.25-21.65-4.24-2.51-8.48-5.02-12.71-7.53-.9-.53-1.89-1.08-2.89-1.32Z"/>
    <path class="st24" d="M232.69,352.32c5.96,2.66,24.87-26.35,26.91-31.25,5.83-13.99,3.63-30.02-.08-44.33-8.18-31.63-27.26-59-37.29-89.94-8.17-25.19-2.19-49.69,22.88-61.4,11.14-5.2,23.45-7.25,35.58-9.24,1.77,5.2,3.04,10.57,3.81,16.01-9.84,2.13-19.78,4.3-28.87,8.65-12.27,5.88-25.54,17.17-20.58,32.18,8.06,19.09,32.34,74.15,32.34,74.15,11.2,22.12,20.52,44.07,12.72,68.75-2.38,7.55-23.82,46.93-29.6,44.35,0,0-17.81-7.94-17.82-7.94Z"/>
    <path class="st5" d="M286.62,248.98c7.21-.08,14.36,3.67,18.39,9.66,6.91,10.27,6.27,27.67,5.36,39.6-2.3,30.2-20.82,58.09-47.24,72.76-1.81-1.49-3.63-2.99-5.44-4.48,2.64,2.17,19.98-18.54,21.65-20.87,6.21-8.72,10.76-18.66,13.21-29.09,5.28-22.5,4.84-46.69-5.91-67.58Z"/>
  </g>
</svg>